# xmcd
#
# Track frame offsets:
#	150
#	21297
#	42755
#	63900
#	86047
#	108315
#	128205
#	148415
#
# Disc length: 2272 seconds
#
# Revision: 0
# Processed by: cddbd v1.5.1PL2 Copyright (c) Steve Scherf et al.
# Submitted via: dBpowerAMP V4.0
#
DISCID=6e08de08
DTITLE=Lou Rawls - Sit Down And Talk To Me
DYEAR=1980
DGENRE=R&B
TTITLE0=One Day Soon You'll Need Me
TTITLE1=Heartaches (Just When You Think You're Loved)
TTITLE2=Ain't That Loving You
TTITLE3=When You Get Home
TTITLE4=Sit Down And Talk To Me
TTITLE5=You're My Blessing
TTITLE6=Old Times
TTITLE7=You Are
EXTD=
EXTT0=
EXTT1=
EXTT2=
EXTT3=
EXTT4=
EXTT5=
EXTT6=
EXTT7=
PLAYORDER=
